<?xml version="1.0" encoding="UTF-8"?>
<svg preserveAspectRatio="none" version="1.1" viewBox="0 0 1000 560" xmlns="http://www.w3.org/2000/svg">
<g mask="url(#a)">
<rect width="1e3" height="560" fill="rgba(46, 27, 64, 1)"/>
<path class="triangle-float2" d="m489.78 572.33c43.897-1.161 70.475-43.863 90.897-82.737 18.591-35.389 30.258-76.28 11.059-111.34-19.85-36.251-60.658-56.29-101.96-54.659-38.733 1.529-69.393 28.699-88.902 62.195-19.666 33.764-27.529 73.571-10.719 108.84 19.419 40.746 54.5 78.893 99.621 77.7" fill="rgba(69, 40, 97, 0.38)"/>
<path class="triangle-float2" d="m114.86 425.92c55.559 0.675 113.66-12.839 143.64-59.619 32.128-50.131 33.176-116.32 1.375-166.66-29.998-47.485-88.866-62.065-145.02-60.716-53.392 1.283-105.45 21.914-133.43 67.407-29.308 47.66-33.347 108.73-4.293 156.55 28.1 46.244 83.613 62.381 137.72 63.038" fill="rgba(69, 40, 97, 0.38)"/>
<path class="triangle-float2" d="m817.4 110.12a118.04 118.04 0 1 0 236.08 0 118.04 118.04 0 1 0-236.08 0z" fill="rgba(69, 40, 97, 0.38)"/>
<path class="triangle-float1" d="m342.88 303.72a169.15 169.15 0 1 0 338.3 0 169.15 169.15 0 1 0-338.3 0z" fill="rgba(69, 40, 97, 0.38)"/>
<path class="triangle-float2" d="m774.09 384.1a144.16 144.16 0 1 0 288.32 0 144.16 144.16 0 1 0-288.32 0z" fill="rgba(69, 40, 97, 0.38)"/>
<path class="triangle-float2" d="m961.04 89.709c23.984-1.209 44.844-15.644 56.271-36.765 10.875-20.101 9.345-43.985-1.786-63.945-11.456-20.543-31.028-35.224-54.485-36.957-26.983-1.994-56.124 4.788-70.477 27.724-15.061 24.066-11.877 55.49 3.444 79.391 14.204 22.157 40.747 31.877 67.033 30.552" fill="rgba(69, 40, 97, 0.38)"/>
<path class="triangle-float1" d="m731.13 103.4a101.93 101.93 0 1 0 203.86 0 101.93 101.93 0 1 0-203.86 0z" fill="rgba(69, 40, 97, 0.38)"/>
<path class="triangle-float2" d="m220.28 264.07c13.707-0.559 25.922-8.418 32.493-20.46 6.301-11.547 4.952-25.198-1.25-36.798-6.634-12.408-17.183-23.433-31.243-23.973-14.858-0.57-28.154 8.589-35.694 21.404-7.656 13.012-9.478 29.256-1.743 42.221 7.573 12.693 22.669 18.209 37.437 17.606" fill="rgba(69, 40, 97, 0.38)"/>
<path class="triangle-float3" d="m55.958 544.34c39.169-1.873 61.247-40.68 80.059-75.087 17.75-32.463 33.499-69.132 16.863-102.18-18.051-35.859-56.776-56.808-96.922-56.86-40.235-0.052-77.573 21.575-97.356 56.61-19.466 34.474-16.2 76.067 2.837 110.78 19.878 36.245 53.228 68.713 94.519 66.738" fill="rgba(69, 40, 97, 0.38)"/>
<path class="triangle-float2" d="m-32.36 210.28a122.39 122.39 0 1 0 244.78 0 122.39 122.39 0 1 0-244.78 0z" fill="rgba(69, 40, 97, 0.38)"/>
<path class="triangle-float2" d="m336.72 410.94c30.323 1.035 63.295-7.037 78.007-33.573 14.415-26.001 1.42-56.571-13.908-82.045-14.706-24.441-35.58-48.115-64.099-47.6-27.921 0.504-46.638 25.439-60.21 49.845-13.077 23.518-21.706 51.006-9.085 74.771 13.292 25.028 40.973 37.635 69.295 38.602" fill="rgba(69, 40, 97, 0.38)"/>
</g>
<defs>
<mask id="a">
<rect width="1e3" height="560" fill="#fff"/>
</mask>
<style>@keyframes float1 {
                0%{transform: translate(0, 0)}
                50%{transform: translate(-10px, 0)}
                100%{transform: translate(0, 0)}
            }

            .triangle-float1 {
                animation: float1 5s infinite;
            }

            @keyframes float2 {
                0%{transform: translate(0, 0)}
                50%{transform: translate(-5px, -5px)}
                100%{transform: translate(0, 0)}
            }

            .triangle-float2 {
                animation: float2 4s infinite;
            }

            @keyframes float3 {
                0%{transform: translate(0, 0)}
                50%{transform: translate(0, -10px)}
                100%{transform: translate(0, 0)}
            }

            .triangle-float3 {
                animation: float3 6s infinite;
            }</style>
</defs>
</svg>
