<?xml version="1.0" encoding="UTF-8"?>
<svg preserveAspectRatio="none" version="1.1" viewBox="0 0 1000 560" xmlns="http://www.w3.org/2000/svg">
<g mask="url(#a)">
<rect width="1e3" height="560" fill="rgba(29, 165, 122, 1)"/>
<path class="triangle-float2" d="m631.48 682.54c55.567 0.288 99.924-40.93 127.4-89.233 27.109-47.666 36.94-105.12 10.443-153.13-27.315-49.491-81.314-78.327-137.84-77.688-55.445 0.627-106 32.06-132.55 80.744-25.472 46.723-18.362 102.21 7.421 148.77 26.735 48.27 69.947 90.258 125.12 90.544" fill="rgba(255, 255, 255, 0.37)"/>
<path class="triangle-float1" d="m-55.26 206.22a101.62 101.62 0 1 0 203.24 0 101.62 101.62 0 1 0-203.24 0z" fill="rgba(255, 255, 255, 0.37)"/>
<path class="triangle-float1" d="m51.29 50.46a137.42 137.42 0 1 0 274.84 0 137.42 137.42 0 1 0-274.84 0z" fill="rgba(255, 255, 255, 0.37)"/>
<path class="triangle-float2" d="m330.88 427.86a103.25 103.25 0 1 0 206.5 0 103.25 103.25 0 1 0-206.5 0z" fill="rgba(255, 255, 255, 0.37)"/>
<path class="triangle-float1" d="m467.3 433.67a108.66 108.66 0 1 0 217.32 0 108.66 108.66 0 1 0-217.32 0z" fill="rgba(255, 255, 255, 0.37)"/>
<path class="triangle-float3" d="m472.41 403.61c21.285-0.145 37.586-17 47.659-35.751 9.466-17.62 11.355-38.495 1.61-55.962-9.992-17.91-28.783-28.48-49.269-29.461-22.504-1.078-47.077 4.713-58.187 24.313-11.007 19.417-2.101 42.632 9.393 61.765 11.058 18.407 27.321 35.242 48.794 35.096" fill="rgba(255, 255, 255, 0.37)"/>
<path class="triangle-float2" d="m1008.8 398.51c34.678-0.402 52.3-38.063 68.615-68.665 14.959-28.058 30.129-59.917 14.783-87.765-15.715-28.517-50.852-37.715-83.398-36.748-30.676 0.912-60.112 14.756-75.234 41.462-14.921 26.351-9.645 57.544 3.808 84.674 15.548 31.355 36.43 67.448 71.426 67.042" fill="rgba(255, 255, 255, 0.37)"/>
<path class="triangle-float2" d="m299.39 70.39a165.21 165.21 0 1 0 330.42 0 165.21 165.21 0 1 0-330.42 0z" fill="rgba(255, 255, 255, 0.37)"/>
<path class="triangle-float3" d="m562.96 247.39c16.215 0.5 30.296-10.568 38.016-24.837 7.347-13.58 7.22-30.263-1.207-43.2-7.763-11.917-22.588-15.288-36.809-15.159-13.939 0.127-28.42 3.91-35.667 15.818-7.494 12.313-5.239 27.577 1.505 40.316 7.284 13.761 18.599 26.582 34.162 27.062" fill="rgba(255, 255, 255, 0.37)"/>
<path class="triangle-float1" d="m203.38 111.78a99.04 99.04 0 1 0 198.08 0 99.04 99.04 0 1 0-198.08 0z" fill="rgba(255, 255, 255, 0.37)"/>
<path class="triangle-float3" d="m-171.59 379.58a184.39 184.39 0 1 0 368.78 0 184.39 184.39 0 1 0-368.78 0z" fill="rgba(255, 255, 255, 0.37)"/>
</g>
<defs>
<mask id="a">
<rect width="1e3" height="560" fill="#fff"/>
</mask>
<style>@keyframes float1 {
                0%{transform: translate(0, 0)}
                50%{transform: translate(-10px, 0)}
                100%{transform: translate(0, 0)}
            }

            .triangle-float1 {
                animation: float1 5s infinite;
            }

            @keyframes float2 {
                0%{transform: translate(0, 0)}
                50%{transform: translate(-5px, -5px)}
                100%{transform: translate(0, 0)}
            }

            .triangle-float2 {
                animation: float2 4s infinite;
            }

            @keyframes float3 {
                0%{transform: translate(0, 0)}
                50%{transform: translate(0, -10px)}
                100%{transform: translate(0, 0)}
            }

            .triangle-float3 {
                animation: float3 6s infinite;
            }</style>
</defs>
</svg>
